ffmpeg started on 2025-07-20 at 12:26:46
Report written to "D:\Convert\FFMetrics\reports\ssim_report-6.txt"
Log level: 32
Command line:
ffmpeg -hide_banner -nostdin -i "G:\\\xc0\xed\xe8\xec\xe5\\\xce\xed\xe3\xee\xe8\xed\xe3\xe8\\!_10_\xc2\xe5\xf1\xed\xe0_2018\\\xcf\xee\xf2\xe5\xf0\xff\xed\xed\xe0\xff \xef\xe5\xf1\xed\xff\\[SHIZA Project] Lost Song ONA [08] [MVO]_HEVC.mkv" -i "G:\\\xc0\xed\xe8\xec\xe5\\\xce\xed\xe3\xee\xe8\xed\xe3\xe8\\!_10_\xc2\xe5\xf1\xed\xe0_2018\\\xcf\xee\xf2\xe5\xf0\xff\xed\xed\xe0\xff \xef\xe5\xf1\xed\xff\\[SHIZA Project] Lost Song ONA [08] [MVO].mkv" -lavfi "[0:v]settb=AVTB,setpts=PTS-STARTPTS,format=pix_fmts=yuv420p10,fps=24000/1001,scale=1280:720:flags=bicubic[main];[1:v]settb=AVTB,setpts=PTS-STARTPTS,format=pix_fmts=yuv420p,fps=24000/1001,scale=1280:720:flags=bicubic[ref];[main][ref]ssim=eof_action=endall:stats_file='D\\:/Convert/FFMetrics/logs/ssim_logfile-6.txt'" -f null -
Input #0, matroska,webm, from 'G:\Аниме\Онгоинги\!_10_Весна_2018\Потерянная песня\[SHIZA Project] Lost Song ONA [08] [MVO]_HEVC.mkv':
  Metadata:
    ENCODER         : Lavf61.7.100
  Duration: 00:23:57.20, start: -0.021000, bitrate: 633 kb/s
  Stream #0:0(jpn): Video: hevc (Main 10), yuv420p10le(tv, bt709, progressive), 1280x720 [SAR 1:1 DAR 16:9], 23.98 fps, 23.98 tbr, 1k tbn (default)
      Metadata:
        title           : www.SHIZA-Project.com
        ENCODER         : Lavc61.19.100 libx265
        BPS             : 437381
        DURATION        : 00:23:57.102708333
        NUMBER_OF_FRAMES: 34456
        NUMBER_OF_BYTES : 78570239
        _STATISTICS_WRITING_APP: mkvpropedit v66.0.0 ('Josie') 64-bit
        _STATISTICS_WRITING_DATE_UTC: 2025-07-19 13:17:25
        _STATISTICS_TAGS: BPS DURATION NUMBER_OF_FRAMES NUMBER_OF_BYTES
  Stream #0:1(rus): Audio: aac (LC), 48000 Hz, stereo, fltp (default)
      Metadata:
        title           : SHIZA Project MVO
        ENCODER         : Lavc61.19.100 aac
        BPS             : 191999
        DURATION        : 00:23:57.183000000
        NUMBER_OF_FRAMES: 67369
        NUMBER_OF_BYTES : 34492267
        _STATISTICS_WRITING_APP: mkvpropedit v66.0.0 ('Josie') 64-bit
        _STATISTICS_WRITING_DATE_UTC: 2025-07-19 13:17:25
        _STATISTICS_TAGS: BPS DURATION NUMBER_OF_FRAMES NUMBER_OF_BYTES
Input #1, matroska,webm, from 'G:\Аниме\Онгоинги\!_10_Весна_2018\Потерянная песня\[SHIZA Project] Lost Song ONA [08] [MVO].mkv':
  Metadata:
    encoder         : libebml v1.3.1 + libmatroska v1.4.2
    creation_time   : 2018-07-23T21:46:41.000000Z
  Duration: 00:23:57.18, start: 0.000000, bitrate: 1286 kb/s
  Stream #1:0(jpn): Video: h264 (Main), yuv420p(progressive), 1280x720 [SAR 1:1 DAR 16:9], 23.98 fps, 23.98 tbr, 1k tbn (default)
      Metadata:
        title           : www.SHIZA-Project.com
        BPS             : 1092227
        BPS-eng         : 1092227
        DURATION        : 00:23:57.103000000
        DURATION-eng    : 00:23:57.103000000
        NUMBER_OF_FRAMES: 34456
        NUMBER_OF_FRAMES-eng: 34456
        NUMBER_OF_BYTES : 196205355
        NUMBER_OF_BYTES-eng: 196205355
        _STATISTICS_WRITING_APP: mkvmerge v7.8.0 ('River Man') 32bit built on Mar 27 2015 16:18:02
        _STATISTICS_WRITING_APP-eng: mkvmerge v7.8.0 ('River Man') 32bit built on Mar 27 2015 16:18:02
        _STATISTICS_WRITING_DATE_UTC: 2018-07-23 21:46:41
        _STATISTICS_WRITING_DATE_UTC-eng: 2018-07-23 21:46:41
        _STATISTICS_TAGS: BPS DURATION NUMBER_OF_FRAMES NUMBER_OF_BYTES
        _STATISTICS_TAGS-eng: BPS DURATION NUMBER_OF_FRAMES NUMBER_OF_BYTES
  Stream #1:1(rus): Audio: aac (LC), 48000 Hz, stereo, fltp (default)
      Metadata:
        title           : SHIZA Project MVO
        BPS             : 192000
        BPS-eng         : 192000
        DURATION        : 00:23:57.184000000
        DURATION-eng    : 00:23:57.184000000
        NUMBER_OF_FRAMES: 67368
        NUMBER_OF_FRAMES-eng: 67368
        NUMBER_OF_BYTES : 34492417
        NUMBER_OF_BYTES-eng: 34492417
        _STATISTICS_WRITING_APP: mkvmerge v7.8.0 ('River Man') 32bit built on Mar 27 2015 16:18:02
        _STATISTICS_WRITING_APP-eng: mkvmerge v7.8.0 ('River Man') 32bit built on Mar 27 2015 16:18:02
        _STATISTICS_WRITING_DATE_UTC: 2018-07-23 21:46:41
        _STATISTICS_WRITING_DATE_UTC-eng: 2018-07-23 21:46:41
        _STATISTICS_TAGS: BPS DURATION NUMBER_OF_FRAMES NUMBER_OF_BYTES
        _STATISTICS_TAGS-eng: BPS DURATION NUMBER_OF_FRAMES NUMBER_OF_BYTES
Stream mapping:
  Stream #0:0 (hevc) -> settb:default
  Stream #1:0 (h264) -> settb:default
  ssim:default -> Stream #0:0 (wrapped_avframe)
  Stream #0:1 -> #0:1 (aac (native) -> pcm_s16le (native))
[swscaler @ 000001c651ad0000] No accelerated colorspace conversion found from yuv420p to bgr48le.
[swscaler @ 000001c651c1b140] No accelerated colorspace conversion found from yuv420p to bgr48le.
[swscaler @ 000001c651ce0800] No accelerated colorspace conversion found from yuv420p to bgr48le.
[swscaler @ 000001c651d61e40] No accelerated colorspace conversion found from yuv420p to bgr48le.
[swscaler @ 000001c651dd1180] No accelerated colorspace conversion found from yuv420p to bgr48le.
[swscaler @ 000001c651e6d040] No accelerated colorspace conversion found from yuv420p to bgr48le.
[swscaler @ 000001c651ed8740] No accelerated colorspace conversion found from yuv420p to bgr48le.
[swscaler @ 000001c651ef4700] No accelerated colorspace conversion found from yuv420p to bgr48le.
[swscaler @ 000001c651f5edc0] No accelerated colorspace conversion found from yuv420p to bgr48le.
[swscaler @ 000001c651fe2040] No accelerated colorspace conversion found from yuv420p to bgr48le.
[swscaler @ 000001c65204f040] No accelerated colorspace conversion found from yuv420p to bgr48le.
[swscaler @ 000001c6520b9040] No accelerated colorspace conversion found from yuv420p to bgr48le.
[swscaler @ 000001c65211d040] No accelerated colorspace conversion found from yuv420p to bgr48le.
[swscaler @ 000001c6521a1040] No accelerated colorspace conversion found from yuv420p to bgr48le.
[swscaler @ 000001c6521ff040] No accelerated colorspace conversion found from yuv420p to bgr48le.
[swscaler @ 000001c65226a040] No accelerated colorspace conversion found from yuv420p to bgr48le.
Output #0, null, to 'pipe:':
  Metadata:
    encoder         : Lavf61.7.100
  Stream #0:0: Video: wrapped_avframe, yuv420p10le(tv, bt709, progressive), 1280x720 [SAR 1:1 DAR 16:9], q=2-31, 200 kb/s, 23.98 fps, 23.98 tbn
      Metadata:
        encoder         : Lavc61.19.100 wrapped_avframe
  Stream #0:1(rus): Audio: pcm_s16le, 48000 Hz, stereo, s16, 1536 kb/s (default)
      Metadata:
        title           : SHIZA Project MVO
        _STATISTICS_TAGS: BPS DURATION NUMBER_OF_FRAMES NUMBER_OF_BYTES
        BPS             : 191999
        DURATION        : 00:23:57.183000000
        NUMBER_OF_FRAMES: 67369
        NUMBER_OF_BYTES : 34492267
        _STATISTICS_WRITING_APP: mkvpropedit v66.0.0 ('Josie') 64-bit
        _STATISTICS_WRITING_DATE_UTC: 2025-07-19 13:17:25
        encoder         : Lavc61.19.100 pcm_s16le
frame=   87 fps=0.0 q=-0.0 size=N/A time=00:00:03.62 bitrate=N/A speed=6.95x    frame=  178 fps=173 q=-0.0 size=N/A time=00:00:07.42 bitrate=N/A speed=7.23x    frame=  283 fps=182 q=-0.0 size=N/A time=00:00:11.80 bitrate=N/A speed=7.61x    frame=  382 fps=185 q=-0.0 size=N/A time=00:00:15.93 bitrate=N/A speed=7.73x    frame=  479 fps=186 q=-0.0 size=N/A time=00:00:19.97 bitrate=N/A speed=7.75x    frame=  577 fps=186 q=-0.0 size=N/A time=00:00:24.06 bitrate=N/A speed=7.77x    frame=  664 fps=184 q=-0.0 size=N/A time=00:00:27.69 bitrate=N/A speed=7.66x    frame=  774 fps=188 q=-0.0 size=N/A time=00:00:32.28 bitrate=N/A speed=7.83x    frame=  868 fps=187 q=-0.0 size=N/A time=00:00:36.20 bitrate=N/A speed= 7.8x    frame=  967 fps=188 q=-0.0 size=N/A time=00:00:40.33 bitrate=N/A speed=7.83x    frame= 1055 fps=186 q=-0.0 size=N/A time=00:00:44.00 bitrate=N/A speed=7.76x    frame= 1159 fps=187 q=-0.0 size=N/A time=00:00:48.33 bitrate=N/A speed=7.81x    frame= 1252 fps=187 q=-0.0 size=N/A time=00:00:52.21 bitrate=N/A speed=7.79x    frame= 1352 fps=187 q=-0.0 size=N/A time=00:00:56.38 bitrate=N/A speed=7.81x    frame= 1452 fps=188 q=-0.0 size=N/A time=00:01:00.56 bitrate=N/A speed=7.83x    frame= 1542 fps=187 q=-0.0 size=N/A time=00:01:04.31 bitrate=N/A speed=7.79x    frame= 1645 fps=188 q=-0.0 size=N/A time=00:01:08.61 bitrate=N/A speed=7.83x    frame= 1746 fps=188 q=-0.0 size=N/A time=00:01:12.82 bitrate=N/A speed=7.84x    frame= 1847 fps=188 q=-0.0 size=N/A time=00:01:17.03 bitrate=N/A speed=7.86x    frame= 1945 fps=189 q=-0.0 size=N/A time=00:01:21.12 bitrate=N/A speed=7.87x    frame= 2046 fps=189 q=-0.0 size=N/A time=00:01:25.33 bitrate=N/A speed=7.88x    frame= 2141 fps=189 q=-0.0 size=N/A time=00:01:29.29 bitrate=N/A speed=7.87x    frame= 2239 fps=189 q=-0.0 size=N/A time=00:01:33.38 bitrate=N/A speed=7.87x    frame= 2338 fps=189 q=-0.0 size=N/A time=00:01:37.51 bitrate=N/A speed=7.88x    frame= 2430 fps=188 q=-0.0 size=N/A time=00:01:41.35 bitrate=N/A speed=7.86x    frame= 2520 fps=188 q=-0.0 size=N/A time=00:01:45.10 bitrate=N/A speed=7.84x    frame= 2611 fps=188 q=-0.0 size=N/A time=00:01:48.90 bitrate=N/A speed=7.82x    frame= 2707 fps=187 q=-0.0 size=N/A time=00:01:52.90 bitrate=N/A speed=7.82x    frame= 2800 fps=187 q=-0.0 size=N/A time=00:01:56.78 bitrate=N/A speed=7.81x    frame= 2898 fps=187 q=-0.0 size=N/A time=00:02:00.87 bitrate=N/A speed=7.81x    frame= 2986 fps=187 q=-0.0 size=N/A time=00:02:04.54 bitrate=N/A speed=7.79x    frame= 3082 fps=187 q=-0.0 size=N/A time=00:02:08.54 bitrate=N/A speed=7.79x    frame= 3171 fps=186 q=-0.0 size=N/A time=00:02:12.25 bitrate=N/A speed=7.77x    frame= 3271 fps=186 q=-0.0 size=N/A time=00:02:16.42 bitrate=N/A speed=7.78x    frame= 3365 fps=186 q=-0.0 size=N/A time=00:02:20.34 bitrate=N/A speed=7.77x    frame= 3456 fps=186 q=-0.0 size=N/A time=00:02:24.14 bitrate=N/A speed=7.77x    frame= 3546 fps=186 q=-0.0 size=N/A time=00:02:27.89 bitrate=N/A speed=7.75x    frame= 3643 fps=186 q=-0.0 size=N/A time=00:02:31.94 bitrate=N/A speed=7.75x    frame= 3735 fps=186 q=-0.0 size=N/A time=00:02:35.78 bitrate=N/A speed=7.75x    frame= 3826 fps=185 q=-0.0 size=N/A time=00:02:39.57 bitrate=N/A speed=7.73x    frame= 3913 fps=185 q=-0.0 size=N/A time=00:02:43.20 bitrate=N/A speed=7.72x    frame= 4003 fps=185 q=-0.0 size=N/A time=00:02:46.95 bitrate=N/A speed=7.71x    frame= 4101 fps=185 q=-0.0 size=N/A time=00:02:51.04 bitrate=N/A speed=7.71x    frame= 4194 fps=185 q=-0.0 size=N/A time=00:02:54.92 bitrate=N/A speed=7.71x    frame= 4292 fps=185 q=-0.0 size=N/A time=00:02:59.01 bitrate=N/A speed=7.71x    frame= 4391 fps=185 q=-0.0 size=N/A time=00:03:03.14 bitrate=N/A speed=7.72x    frame= 4486 fps=185 q=-0.0 size=N/A time=00:03:07.10 bitrate=N/A speed=7.72x    frame= 4578 fps=185 q=-0.0 size=N/A time=00:03:10.94 bitrate=N/A speed=7.71x    frame= 4678 fps=185 q=-0.0 size=N/A time=00:03:15.11 bitrate=N/A speed=7.72x    frame= 4773 fps=185 q=-0.0 size=N/A time=00:03:19.07 bitrate=N/A speed=7.72x    frame= 4869 fps=185 q=-0.0 size=N/A time=00:03:23.07 bitrate=N/A speed=7.72x    frame= 4963 fps=185 q=-0.0 size=N/A time=00:03:26.99 bitrate=N/A speed=7.72x    frame= 5067 fps=185 q=-0.0 size=N/A time=00:03:31.33 bitrate=N/A speed=7.73x    frame= 5160 fps=185 q=-0.0 size=N/A time=00:03:35.21 bitrate=N/A speed=7.73x    frame= 5258 fps=185 q=-0.0 size=N/A time=00:03:39.30 bitrate=N/A speed=7.73x    frame= 5347 fps=185 q=-0.0 size=N/A time=00:03:43.01 bitrate=N/A speed=7.72x    frame= 5448 fps=185 q=-0.0 size=N/A time=00:03:47.22 bitrate=N/A speed=7.73x    frame= 5544 fps=185 q=-0.0 size=N/A time=00:03:51.23 bitrate=N/A speed=7.73x    frame= 5637 fps=185 q=-0.0 size=N/A time=00:03:55.10 bitrate=N/A speed=7.72x    frame= 5733 fps=185 q=-0.0 size=N/A time=00:03:59.11 bitrate=N/A speed=7.72x    frame= 5828 fps=185 q=-0.0 size=N/A time=00:04:03.07 bitrate=N/A speed=7.72x    frame= 5939 fps=186 q=-0.0 size=N/A time=00:04:07.70 bitrate=N/A speed=7.74x    frame= 6036 fps=186 q=-0.0 size=N/A time=00:04:11.75 bitrate=N/A speed=7.74x    frame= 6132 fps=186 q=-0.0 size=N/A time=00:04:15.75 bitrate=N/A speed=7.74x    frame= 6221 fps=185 q=-0.0 size=N/A time=00:04:19.46 bitrate=N/A speed=7.73x    frame= 6320 fps=186 q=-0.0 size=N/A time=00:04:23.59 bitrate=N/A speed=7.74x    frame= 6420 fps=186 q=-0.0 size=N/A time=00:04:27.76 bitrate=N/A speed=7.74x    frame= 6515 fps=186 q=-0.0 size=N/A time=00:04:31.72 bitrate=N/A speed=7.74x    frame= 6611 fps=186 q=-0.0 size=N/A time=00:04:35.73 bitrate=N/A speed=7.74x    frame= 6712 fps=186 q=-0.0 size=N/A time=00:04:39.94 bitrate=N/A speed=7.75x    frame= 6799 fps=186 q=-0.0 size=N/A time=00:04:43.57 bitrate=N/A speed=7.74x    frame= 6898 fps=186 q=-0.0 size=N/A time=00:04:47.70 bitrate=N/A speed=7.74x    frame= 6993 fps=186 q=-0.0 size=N/A time=00:04:51.66 bitrate=N/A speed=7.74x    frame= 7092 fps=186 q=-0.0 size=N/A time=00:04:55.79 bitrate=N/A speed=7.75x    frame= 7188 fps=186 q=-0.0 size=N/A time=00:04:59.79 bitrate=N/A speed=7.74x    frame= 7287 fps=186 q=-0.0 size=N/A time=00:05:03.92 bitrate=N/A speed=7.75x    frame= 7394 fps=186 q=-0.0 size=N/A time=00:05:08.39 bitrate=N/A speed=7.76x    frame= 7488 fps=186 q=-0.0 size=N/A time=00:05:12.31 bitrate=N/A speed=7.76x    frame= 7591 fps=186 q=-0.0 size=N/A time=00:05:16.60 bitrate=N/A speed=7.76x    frame= 7676 fps=186 q=-0.0 size=N/A time=00:05:20.15 bitrate=N/A speed=7.75x    frame= 7781 fps=186 q=-0.0 size=N/A time=00:05:24.53 bitrate=N/A speed=7.76x    frame= 7892 fps=186 q=-0.0 size=N/A time=00:05:29.16 bitrate=N/A speed=7.78x    frame= 7989 fps=187 q=-0.0 size=N/A time=00:05:33.20 bitrate=N/A speed=7.78x    frame= 8090 fps=187 q=-0.0 size=N/A time=00:05:37.42 bitrate=N/A speed=7.78x    frame= 8181 fps=187 q=-0.0 size=N/A time=00:05:41.21 bitrate=N/A speed=7.78x    frame= 8279 fps=187 q=-0.0 size=N/A time=00:05:45.30 bitrate=N/A speed=7.78x    frame= 8377 fps=187 q=-0.0 size=N/A time=00:05:49.39 bitrate=N/A speed=7.78x    frame= 8470 fps=186 q=-0.0 size=N/A time=00:05:53.26 bitrate=N/A speed=7.78x    frame= 8572 fps=187 q=-0.0 size=N/A time=00:05:57.52 bitrate=N/A speed=7.78x    frame= 8678 fps=187 q=-0.0 size=N/A time=00:06:01.94 bitrate=N/A speed=7.79x    frame= 8771 fps=187 q=-0.0 size=N/A time=00:06:05.82 bitrate=N/A speed=7.79x    frame= 8869 fps=187 q=-0.0 size=N/A time=00:06:09.91 bitrate=N/A speed=7.79x    frame= 8960 fps=187 q=-0.0 size=N/A time=00:06:13.70 bitrate=N/A speed=7.79x    frame= 9066 fps=187 q=-0.0 size=N/A time=00:06:18.12 bitrate=N/A speed=7.79x    frame= 9170 fps=187 q=-0.0 size=N/A time=00:06:22.46 bitrate=N/A speed= 7.8x    frame= 9268 fps=187 q=-0.0 size=N/A time=00:06:26.55 bitrate=N/A speed= 7.8x    frame= 9365 fps=187 q=-0.0 size=N/A time=00:06:30.59 bitrate=N/A speed= 7.8x    frame= 9463 fps=187 q=-0.0 size=N/A time=00:06:34.68 bitrate=N/A speed= 7.8x    frame= 9557 fps=187 q=-0.0 size=N/A time=00:06:38.60 bitrate=N/A speed= 7.8x    frame= 9652 fps=187 q=-0.0 size=N/A time=00:06:42.56 bitrate=N/A speed= 7.8x    frame= 9742 fps=187 q=-0.0 size=N/A time=00:06:46.32 bitrate=N/A speed=7.79x    frame= 9845 fps=187 q=-0.0 size=N/A time=00:06:50.61 bitrate=N/A speed= 7.8x    frame= 9945 fps=187 q=-0.0 size=N/A time=00:06:54.78 bitrate=N/A speed= 7.8x    frame=10044 fps=187 q=-0.0 size=N/A time=00:06:58.91 bitrate=N/A speed=7.81x    frame=10134 fps=187 q=-0.0 size=N/A time=00:07:02.67 bitrate=N/A speed= 7.8x    frame=10245 fps=187 q=-0.0 size=N/A time=00:07:07.30 bitrate=N/A speed=7.81x    frame=10344 fps=187 q=-0.0 size=N/A time=00:07:11.43 bitrate=N/A speed=7.81x    frame=10439 fps=187 q=-0.0 size=N/A time=00:07:15.39 bitrate=N/A speed=7.81x    frame=10537 fps=187 q=-0.0 size=N/A time=00:07:19.48 bitrate=N/A speed=7.81x    frame=10643 fps=187 q=-0.0 size=N/A time=00:07:23.90 bitrate=N/A speed=7.82x    frame=10742 fps=188 q=-0.0 size=N/A time=00:07:28.03 bitrate=N/A speed=7.82x    frame=10841 fps=188 q=-0.0 size=N/A time=00:07:32.16 bitrate=N/A speed=7.82x    frame=10933 fps=187 q=-0.0 size=N/A time=00:07:35.99 bitrate=N/A speed=7.82x    frame=11029 fps=187 q=-0.0 size=N/A time=00:07:40.00 bitrate=N/A speed=7.82x    frame=11126 fps=187 q=-0.0 size=N/A time=00:07:44.04 bitrate=N/A speed=7.82x    frame=11228 fps=188 q=-0.0 size=N/A time=00:07:48.30 bitrate=N/A speed=7.82x    frame=11317 fps=187 q=-0.0 size=N/A time=00:07:52.01 bitrate=N/A speed=7.82x    frame=11416 fps=187 q=-0.0 size=N/A time=00:07:56.14 bitrate=N/A speed=7.82x    frame=11520 fps=188 q=-0.0 size=N/A time=00:08:00.48 bitrate=N/A speed=7.83x    frame=11622 fps=188 q=-0.0 size=N/A time=00:08:04.73 bitrate=N/A speed=7.83x    frame=11709 fps=188 q=-0.0 size=N/A time=00:08:08.36 bitrate=N/A speed=7.82x    frame=11817 fps=188 q=-0.0 size=N/A time=00:08:12.86 bitrate=N/A speed=7.83x    frame=11909 fps=188 q=-0.0 size=N/A time=00:08:16.70 bitrate=N/A speed=7.83x    frame=12007 fps=188 q=-0.0 size=N/A time=00:08:20.79 bitrate=N/A speed=7.83x    frame=12100 fps=188 q=-0.0 size=N/A time=00:08:24.67 bitrate=N/A speed=7.82x    frame=12201 fps=188 q=-0.0 size=N/A time=00:08:28.88 bitrate=N/A speed=7.83x    frame=12297 fps=188 q=-0.0 size=N/A time=00:08:32.88 bitrate=N/A speed=7.83x    frame=12385 fps=188 q=-0.0 size=N/A time=00:08:36.55 bitrate=N/A speed=7.82x    frame=12487 fps=188 q=-0.0 size=N/A time=00:08:40.81 bitrate=N/A speed=7.82x    frame=12575 fps=187 q=-0.0 size=N/A time=00:08:44.48 bitrate=N/A speed=7.82x    frame=12672 fps=187 q=-0.0 size=N/A time=00:08:48.52 bitrate=N/A speed=7.82x    frame=12757 fps=187 q=-0.0 size=N/A time=00:08:52.07 bitrate=N/A speed=7.81x    frame=12862 fps=187 q=-0.0 size=N/A time=00:08:56.45 bitrate=N/A speed=7.82x    frame=12957 fps=187 q=-0.0 size=N/A time=00:09:00.41 bitrate=N/A speed=7.82x    frame=13059 fps=187 q=-0.0 size=N/A time=00:09:04.66 bitrate=N/A speed=7.82x    frame=13154 fps=187 q=-0.0 size=N/A time=00:09:08.63 bitrate=N/A speed=7.82x    frame=13255 fps=187 q=-0.0 size=N/A time=00:09:12.84 bitrate=N/A speed=7.82x    frame=13352 fps=187 q=-0.0 size=N/A time=00:09:16.88 bitrate=N/A speed=7.82x    frame=13434 fps=187 q=-0.0 size=N/A time=00:09:20.30 bitrate=N/A speed=7.81x    frame=13543 fps=187 q=-0.0 size=N/A time=00:09:24.85 bitrate=N/A speed=7.82x    frame=13635 fps=187 q=-0.0 size=N/A time=00:09:28.69 bitrate=N/A speed=7.81x    frame=13728 fps=187 q=-0.0 size=N/A time=00:09:32.57 bitrate=N/A speed=7.81x    frame=13830 fps=187 q=-0.0 size=N/A time=00:09:36.82 bitrate=N/A speed=7.82x    frame=13921 fps=187 q=-0.0 size=N/A time=00:09:40.62 bitrate=N/A speed=7.81x    frame=14011 fps=187 q=-0.0 size=N/A time=00:09:44.37 bitrate=N/A speed=7.81x    frame=14107 fps=187 q=-0.0 size=N/A time=00:09:48.37 bitrate=N/A speed=7.81x    frame=14202 fps=187 q=-0.0 size=N/A time=00:09:52.34 bitrate=N/A speed=7.81x    frame=14295 fps=187 q=-0.0 size=N/A time=00:09:56.22 bitrate=N/A speed=7.81x    frame=14396 fps=187 q=-0.0 size=N/A time=00:10:00.43 bitrate=N/A speed=7.81x    frame=14490 fps=187 q=-0.0 size=N/A time=00:10:04.35 bitrate=N/A speed=7.81x    frame=14588 fps=187 q=-0.0 size=N/A time=00:10:08.44 bitrate=N/A speed=7.81x    frame=14682 fps=187 q=-0.0 size=N/A time=00:10:12.36 bitrate=N/A speed=7.81x    frame=14777 fps=187 q=-0.0 size=N/A time=00:10:16.32 bitrate=N/A speed=7.81x    frame=14888 fps=187 q=-0.0 size=N/A time=00:10:20.95 bitrate=N/A speed=7.81x    frame=14987 fps=187 q=-0.0 size=N/A time=00:10:25.08 bitrate=N/A speed=7.82x    frame=15086 fps=187 q=-0.0 size=N/A time=00:10:29.21 bitrate=N/A speed=7.82x    frame=15184 fps=187 q=-0.0 size=N/A time=00:10:33.29 bitrate=N/A speed=7.82x    frame=15280 fps=187 q=-0.0 size=N/A time=00:10:37.30 bitrate=N/A speed=7.82x    frame=15380 fps=187 q=-0.0 size=N/A time=00:10:41.47 bitrate=N/A speed=7.82x    frame=15474 fps=187 q=-0.0 size=N/A time=00:10:45.39 bitrate=N/A speed=7.82x    frame=15567 fps=187 q=-0.0 size=N/A time=00:10:49.27 bitrate=N/A speed=7.81x    frame=15660 fps=187 q=-0.0 size=N/A time=00:10:53.15 bitrate=N/A speed=7.81x    frame=15757 fps=187 q=-0.0 size=N/A time=00:10:57.19 bitrate=N/A speed=7.81x    frame=15843 fps=187 q=-0.0 size=N/A time=00:11:00.78 bitrate=N/A speed=7.81x    frame=15958 fps=187 q=-0.0 size=N/A time=00:11:05.58 bitrate=N/A speed=7.82x    frame=16054 fps=187 q=-0.0 size=N/A time=00:11:09.58 bitrate=N/A speed=7.82x    frame=16159 fps=187 q=-0.0 size=N/A time=00:11:13.96 bitrate=N/A speed=7.82x    frame=16257 fps=188 q=-0.0 size=N/A time=00:11:18.05 bitrate=N/A speed=7.82x    frame=16360 fps=188 q=-0.0 size=N/A time=00:11:22.34 bitrate=N/A speed=7.82x    frame=16455 fps=188 q=-0.0 size=N/A time=00:11:26.31 bitrate=N/A speed=7.82x    frame=16555 fps=188 q=-0.0 size=N/A time=00:11:30.48 bitrate=N/A speed=7.82x    frame=16655 fps=188 q=-0.0 size=N/A time=00:11:34.65 bitrate=N/A speed=7.83x    frame=16745 fps=188 q=-0.0 size=N/A time=00:11:38.40 bitrate=N/A speed=7.82x    frame=16845 fps=188 q=-0.0 size=N/A time=00:11:42.57 bitrate=N/A speed=7.82x    frame=16940 fps=188 q=-0.0 size=N/A time=00:11:46.53 bitrate=N/A speed=7.82x    frame=17040 fps=188 q=-0.0 size=N/A time=00:11:50.71 bitrate=N/A speed=7.82x    frame=17137 fps=188 q=-0.0 size=N/A time=00:11:54.75 bitrate=N/A speed=7.83x    frame=17236 fps=188 q=-0.0 size=N/A time=00:11:58.88 bitrate=N/A speed=7.83x    frame=17336 fps=188 q=-0.0 size=N/A time=00:12:03.05 bitrate=N/A speed=7.83x    frame=17427 fps=188 q=-0.0 size=N/A time=00:12:06.85 bitrate=N/A speed=7.82x    frame=17542 fps=188 q=-0.0 size=N/A time=00:12:11.64 bitrate=N/A speed=7.83x    frame=17632 fps=188 q=-0.0 size=N/A time=00:12:15.40 bitrate=N/A speed=7.83x    frame=17734 fps=188 q=-0.0 size=N/A time=00:12:19.65 bitrate=N/A speed=7.83x    frame=17830 fps=188 q=-0.0 size=N/A time=00:12:23.65 bitrate=N/A speed=7.83x    frame=17929 fps=188 q=-0.0 size=N/A time=00:12:27.78 bitrate=N/A speed=7.83x    frame=18029 fps=188 q=-0.0 size=N/A time=00:12:31.95 bitrate=N/A speed=7.83x    frame=18128 fps=188 q=-0.0 size=N/A time=00:12:36.08 bitrate=N/A speed=7.83x    frame=18223 fps=188 q=-0.0 size=N/A time=00:12:40.05 bitrate=N/A speed=7.83x    frame=18317 fps=188 q=-0.0 size=N/A time=00:12:43.97 bitrate=N/A speed=7.83x    frame=18407 fps=188 q=-0.0 size=N/A time=00:12:47.72 bitrate=N/A speed=7.83x    frame=18502 fps=188 q=-0.0 size=N/A time=00:12:51.68 bitrate=N/A speed=7.83x    frame=18602 fps=188 q=-0.0 size=N/A time=00:12:55.85 bitrate=N/A speed=7.83x    frame=18697 fps=188 q=-0.0 size=N/A time=00:12:59.82 bitrate=N/A speed=7.83x    frame=18796 fps=188 q=-0.0 size=N/A time=00:13:03.94 bitrate=N/A speed=7.83x    frame=18893 fps=188 q=-0.0 size=N/A time=00:13:07.99 bitrate=N/A speed=7.83x    frame=18993 fps=188 q=-0.0 size=N/A time=00:13:12.16 bitrate=N/A speed=7.83x    frame=19086 fps=188 q=-0.0 size=N/A time=00:13:16.04 bitrate=N/A speed=7.83x    frame=19179 fps=188 q=-0.0 size=N/A time=00:13:19.92 bitrate=N/A speed=7.83x    frame=19272 fps=188 q=-0.0 size=N/A time=00:13:23.80 bitrate=N/A speed=7.83x    frame=19371 fps=188 q=-0.0 size=N/A time=00:13:27.93 bitrate=N/A speed=7.83x    frame=19458 fps=188 q=-0.0 size=N/A time=00:13:31.56 bitrate=N/A speed=7.82x    frame=19557 fps=188 q=-0.0 size=N/A time=00:13:35.68 bitrate=N/A speed=7.82x    frame=19650 fps=188 q=-0.0 size=N/A time=00:13:39.56 bitrate=N/A speed=7.82x    frame=19752 fps=188 q=-0.0 size=N/A time=00:13:43.82 bitrate=N/A speed=7.82x    frame=19849 fps=188 q=-0.0 size=N/A time=00:13:47.86 bitrate=N/A speed=7.83x    frame=19950 fps=188 q=-0.0 size=N/A time=00:13:52.08 bitrate=N/A speed=7.83x    frame=20045 fps=188 q=-0.0 size=N/A time=00:13:56.04 bitrate=N/A speed=7.83x    frame=20137 fps=188 q=-0.0 size=N/A time=00:13:59.88 bitrate=N/A speed=7.82x    frame=20233 fps=188 q=-0.0 size=N/A time=00:14:03.88 bitrate=N/A speed=7.82x    frame=20330 fps=188 q=-0.0 size=N/A time=00:14:07.93 bitrate=N/A speed=7.82x    frame=20430 fps=188 q=-0.0 size=N/A time=00:14:12.10 bitrate=N/A speed=7.82x    frame=20526 fps=188 q=-0.0 size=N/A time=00:14:16.10 bitrate=N/A speed=7.82x    frame=20616 fps=188 q=-0.0 size=N/A time=00:14:19.85 bitrate=N/A speed=7.82x    frame=20715 fps=188 q=-0.0 size=N/A time=00:14:23.98 bitrate=N/A speed=7.82x    frame=20820 fps=188 q=-0.0 size=N/A time=00:14:28.36 bitrate=N/A speed=7.83x    frame=20913 fps=188 q=-0.0 size=N/A time=00:14:32.24 bitrate=N/A speed=7.83x    frame=21008 fps=188 q=-0.0 size=N/A time=00:14:36.20 bitrate=N/A speed=7.82x    frame=21100 fps=188 q=-0.0 size=N/A time=00:14:40.04 bitrate=N/A speed=7.82x    frame=21188 fps=187 q=-0.0 size=N/A time=00:14:43.71 bitrate=N/A speed=7.82x    frame=21281 fps=187 q=-0.0 size=N/A time=00:14:47.59 bitrate=N/A speed=7.82x    frame=21371 fps=187 q=-0.0 size=N/A time=00:14:51.34 bitrate=N/A speed=7.82x    frame=21460 fps=187 q=-0.0 size=N/A time=00:14:55.06 bitrate=N/A speed=7.81x    frame=21551 fps=187 q=-0.0 size=N/A time=00:14:58.85 bitrate=N/A speed=7.81x    frame=21641 fps=187 q=-0.0 size=N/A time=00:15:02.61 bitrate=N/A speed=7.81x    frame=21735 fps=187 q=-0.0 size=N/A time=00:15:06.53 bitrate=N/A speed=7.81x    frame=21827 fps=187 q=-0.0 size=N/A time=00:15:10.36 bitrate=N/A speed=7.81x    frame=21912 fps=187 q=-0.0 size=N/A time=00:15:13.91 bitrate=N/A speed= 7.8x    frame=22003 fps=187 q=-0.0 size=N/A time=00:15:17.70 bitrate=N/A speed= 7.8x    frame=22094 fps=187 q=-0.0 size=N/A time=00:15:21.50 bitrate=N/A speed= 7.8x    frame=22187 fps=187 q=-0.0 size=N/A time=00:15:25.38 bitrate=N/A speed= 7.8x    frame=22277 fps=187 q=-0.0 size=N/A time=00:15:29.13 bitrate=N/A speed=7.79x    frame=22372 fps=187 q=-0.0 size=N/A time=00:15:33.09 bitrate=N/A speed=7.79x    frame=22457 fps=187 q=-0.0 size=N/A time=00:15:36.64 bitrate=N/A speed=7.79x    frame=22545 fps=187 q=-0.0 size=N/A time=00:15:40.31 bitrate=N/A speed=7.79x    frame=22641 fps=187 q=-0.0 size=N/A time=00:15:44.31 bitrate=N/A speed=7.79x    frame=22739 fps=187 q=-0.0 size=N/A time=00:15:48.40 bitrate=N/A speed=7.79x    frame=22836 fps=187 q=-0.0 size=N/A time=00:15:52.45 bitrate=N/A speed=7.79x    frame=22933 fps=187 q=-0.0 size=N/A time=00:15:56.49 bitrate=N/A speed=7.79x    frame=23028 fps=187 q=-0.0 size=N/A time=00:16:00.45 bitrate=N/A speed=7.79x    frame=23121 fps=187 q=-0.0 size=N/A time=00:16:04.33 bitrate=N/A speed=7.79x    frame=23202 fps=187 q=-0.0 size=N/A time=00:16:07.71 bitrate=N/A speed=7.78x    frame=23302 fps=187 q=-0.0 size=N/A time=00:16:11.88 bitrate=N/A speed=7.78x    frame=23393 fps=187 q=-0.0 size=N/A time=00:16:15.68 bitrate=N/A speed=7.78x    frame=23484 fps=187 q=-0.0 size=N/A time=00:16:19.47 bitrate=N/A speed=7.78x    frame=23574 fps=186 q=-0.0 size=N/A time=00:16:23.23 bitrate=N/A speed=7.78x    frame=23666 fps=186 q=-0.0 size=N/A time=00:16:27.06 bitrate=N/A speed=7.78x    frame=23753 fps=186 q=-0.0 size=N/A time=00:16:30.69 bitrate=N/A speed=7.77x    frame=23845 fps=186 q=-0.0 size=N/A time=00:16:34.53 bitrate=N/A speed=7.77x    frame=23927 fps=186 q=-0.0 size=N/A time=00:16:37.95 bitrate=N/A speed=7.77x    frame=24022 fps=186 q=-0.0 size=N/A time=00:16:41.91 bitrate=N/A speed=7.77x    frame=24121 fps=186 q=-0.0 size=N/A time=00:16:46.04 bitrate=N/A speed=7.77x    frame=24218 fps=186 q=-0.0 size=N/A time=00:16:50.09 bitrate=N/A speed=7.77x    frame=24311 fps=186 q=-0.0 size=N/A time=00:16:53.97 bitrate=N/A speed=7.77x    frame=24403 fps=186 q=-0.0 size=N/A time=00:16:57.80 bitrate=N/A speed=7.77x    frame=24492 fps=186 q=-0.0 size=N/A time=00:17:01.52 bitrate=N/A speed=7.76x    frame=24583 fps=186 q=-0.0 size=N/A time=00:17:05.31 bitrate=N/A speed=7.76x    frame=24687 fps=186 q=-0.0 size=N/A time=00:17:09.65 bitrate=N/A speed=7.76x    frame=24781 fps=186 q=-0.0 size=N/A time=00:17:13.57 bitrate=N/A speed=7.76x    frame=24873 fps=186 q=-0.0 size=N/A time=00:17:17.41 bitrate=N/A speed=7.76x    frame=24965 fps=186 q=-0.0 size=N/A time=00:17:21.24 bitrate=N/A speed=7.76x    frame=25051 fps=186 q=-0.0 size=N/A time=00:17:24.83 bitrate=N/A speed=7.76x    frame=25152 fps=186 q=-0.0 size=N/A time=00:17:29.04 bitrate=N/A speed=7.76x    frame=25247 fps=186 q=-0.0 size=N/A time=00:17:33.01 bitrate=N/A speed=7.76x    frame=25348 fps=186 q=-0.0 size=N/A time=00:17:37.22 bitrate=N/A speed=7.76x    frame=25444 fps=186 q=-0.0 size=N/A time=00:17:41.22 bitrate=N/A speed=7.76x    frame=25541 fps=186 q=-0.0 size=N/A time=00:17:45.27 bitrate=N/A speed=7.76x    frame=25638 fps=186 q=-0.0 size=N/A time=00:17:49.31 bitrate=N/A speed=7.76x    frame=25727 fps=186 q=-0.0 size=N/A time=00:17:53.03 bitrate=N/A speed=7.76x    frame=25826 fps=186 q=-0.0 size=N/A time=00:17:57.15 bitrate=N/A speed=7.76x    frame=25927 fps=186 q=-0.0 size=N/A time=00:18:01.37 bitrate=N/A speed=7.76x    frame=26026 fps=186 q=-0.0 size=N/A time=00:18:05.50 bitrate=N/A speed=7.76x    frame=26124 fps=186 q=-0.0 size=N/A time=00:18:09.58 bitrate=N/A speed=7.76x    frame=26212 fps=186 q=-0.0 size=N/A time=00:18:13.25 bitrate=N/A speed=7.76x    frame=26314 fps=186 q=-0.0 size=N/A time=00:18:17.51 bitrate=N/A speed=7.76x    frame=26404 fps=186 q=-0.0 size=N/A time=00:18:21.26 bitrate=N/A speed=7.76x    frame=26499 fps=186 q=-0.0 size=N/A time=00:18:25.22 bitrate=N/A speed=7.76x    frame=26595 fps=186 q=-0.0 size=N/A time=00:18:29.23 bitrate=N/A speed=7.76x    frame=26696 fps=186 q=-0.0 size=N/A time=00:18:33.44 bitrate=N/A speed=7.76x    frame=26797 fps=186 q=-0.0 size=N/A time=00:18:37.65 bitrate=N/A speed=7.76x    frame=26894 fps=186 q=-0.0 size=N/A time=00:18:41.70 bitrate=N/A speed=7.76x    frame=26981 fps=186 q=-0.0 size=N/A time=00:18:45.33 bitrate=N/A speed=7.76x    frame=27073 fps=186 q=-0.0 size=N/A time=00:18:49.16 bitrate=N/A speed=7.76x    frame=27169 fps=186 q=-0.0 size=N/A time=00:18:53.17 bitrate=N/A speed=7.76x    frame=27257 fps=186 q=-0.0 size=N/A time=00:18:56.84 bitrate=N/A speed=7.76x    frame=27357 fps=186 q=-0.0 size=N/A time=00:19:01.01 bitrate=N/A speed=7.76x    frame=27455 fps=186 q=-0.0 size=N/A time=00:19:05.10 bitrate=N/A speed=7.76x    frame=27547 fps=186 q=-0.0 size=N/A time=00:19:08.93 bitrate=N/A speed=7.76x    frame=27640 fps=186 q=-0.0 size=N/A time=00:19:12.81 bitrate=N/A speed=7.76x    frame=27740 fps=186 q=-0.0 size=N/A time=00:19:16.98 bitrate=N/A speed=7.76x    frame=27831 fps=186 q=-0.0 size=N/A time=00:19:20.78 bitrate=N/A speed=7.76x    frame=27927 fps=186 q=-0.0 size=N/A time=00:19:24.78 bitrate=N/A speed=7.76x    frame=28017 fps=186 q=-0.0 size=N/A time=00:19:28.54 bitrate=N/A speed=7.75x    frame=28106 fps=186 q=-0.0 size=N/A time=00:19:32.25 bitrate=N/A speed=7.75x    frame=28203 fps=186 q=-0.0 size=N/A time=00:19:36.30 bitrate=N/A speed=7.75x    frame=28303 fps=186 q=-0.0 size=N/A time=00:19:40.47 bitrate=N/A speed=7.75x    frame=28394 fps=186 q=-0.0 size=N/A time=00:19:44.26 bitrate=N/A speed=7.75x    frame=28490 fps=186 q=-0.0 size=N/A time=00:19:48.27 bitrate=N/A speed=7.75x    frame=28590 fps=186 q=-0.0 size=N/A time=00:19:52.44 bitrate=N/A speed=7.75x    frame=28687 fps=186 q=-0.0 size=N/A time=00:19:56.48 bitrate=N/A speed=7.75x    frame=28782 fps=186 q=-0.0 size=N/A time=00:20:00.44 bitrate=N/A speed=7.75x    frame=28875 fps=186 q=-0.0 size=N/A time=00:20:04.32 bitrate=N/A speed=7.75x    frame=28972 fps=186 q=-0.0 size=N/A time=00:20:08.37 bitrate=N/A speed=7.75x    frame=29071 fps=186 q=-0.0 size=N/A time=00:20:12.50 bitrate=N/A speed=7.75x    frame=29163 fps=186 q=-0.0 size=N/A time=00:20:16.34 bitrate=N/A speed=7.75x    frame=29259 fps=186 q=-0.0 size=N/A time=00:20:20.34 bitrate=N/A speed=7.75x    frame=29360 fps=186 q=-0.0 size=N/A time=00:20:24.55 bitrate=N/A speed=7.75x    frame=29461 fps=186 q=-0.0 size=N/A time=00:20:28.76 bitrate=N/A speed=7.76x    frame=29554 fps=186 q=-0.0 size=N/A time=00:20:32.64 bitrate=N/A speed=7.75x    frame=29643 fps=186 q=-0.0 size=N/A time=00:20:36.36 bitrate=N/A speed=7.75x    frame=29729 fps=186 q=-0.0 size=N/A time=00:20:39.94 bitrate=N/A speed=7.75x    frame=29831 fps=186 q=-0.0 size=N/A time=00:20:44.20 bitrate=N/A speed=7.75x    frame=29922 fps=186 q=-0.0 size=N/A time=00:20:47.99 bitrate=N/A speed=7.75x    frame=30021 fps=186 q=-0.0 size=N/A time=00:20:52.12 bitrate=N/A speed=7.75x    frame=30118 fps=186 q=-0.0 size=N/A time=00:20:56.17 bitrate=N/A speed=7.75x    frame=30212 fps=186 q=-0.0 size=N/A time=00:21:00.09 bitrate=N/A speed=7.75x    frame=30307 fps=186 q=-0.0 size=N/A time=00:21:04.05 bitrate=N/A speed=7.75x    frame=30409 fps=186 q=-0.0 size=N/A time=00:21:08.30 bitrate=N/A speed=7.75x    frame=30496 fps=186 q=-0.0 size=N/A time=00:21:11.93 bitrate=N/A speed=7.75x    frame=30592 fps=186 q=-0.0 size=N/A time=00:21:15.94 bitrate=N/A speed=7.75x    frame=30680 fps=186 q=-0.0 size=N/A time=00:21:19.61 bitrate=N/A speed=7.75x    frame=30779 fps=186 q=-0.0 size=N/A time=00:21:23.74 bitrate=N/A speed=7.75x    frame=30873 fps=186 q=-0.0 size=N/A time=00:21:27.66 bitrate=N/A speed=7.75x    frame=30971 fps=186 q=-0.0 size=N/A time=00:21:31.74 bitrate=N/A speed=7.75x    frame=31061 fps=186 q=-0.0 size=N/A time=00:21:35.50 bitrate=N/A speed=7.75x    frame=31159 fps=186 q=-0.0 size=N/A time=00:21:39.58 bitrate=N/A speed=7.75x    frame=31244 fps=186 q=-0.0 size=N/A time=00:21:43.13 bitrate=N/A speed=7.75x    frame=31348 fps=186 q=-0.0 size=N/A time=00:21:47.47 bitrate=N/A speed=7.75x    frame=31443 fps=186 q=-0.0 size=N/A time=00:21:51.43 bitrate=N/A speed=7.75x    frame=31544 fps=186 q=-0.0 size=N/A time=00:21:55.64 bitrate=N/A speed=7.75x    frame=31645 fps=186 q=-0.0 size=N/A time=00:21:59.86 bitrate=N/A speed=7.75x    frame=31747 fps=186 q=-0.0 size=N/A time=00:22:04.11 bitrate=N/A speed=7.75x    frame=31837 fps=186 q=-0.0 size=N/A time=00:22:07.86 bitrate=N/A speed=7.75x    frame=31933 fps=186 q=-0.0 size=N/A time=00:22:11.87 bitrate=N/A speed=7.75x    frame=32023 fps=186 q=-0.0 size=N/A time=00:22:15.62 bitrate=N/A speed=7.75x    frame=32118 fps=186 q=-0.0 size=N/A time=00:22:19.58 bitrate=N/A speed=7.75x    frame=32212 fps=186 q=-0.0 size=N/A time=00:22:23.50 bitrate=N/A speed=7.75x    frame=32301 fps=186 q=-0.0 size=N/A time=00:22:27.22 bitrate=N/A speed=7.75x    frame=32389 fps=186 q=-0.0 size=N/A time=00:22:30.89 bitrate=N/A speed=7.74x    frame=32497 fps=186 q=-0.0 size=N/A time=00:22:35.39 bitrate=N/A speed=7.75x    frame=32588 fps=186 q=-0.0 size=N/A time=00:22:39.19 bitrate=N/A speed=7.74x    frame=32680 fps=186 q=-0.0 size=N/A time=00:22:43.02 bitrate=N/A speed=7.74x    frame=32776 fps=186 q=-0.0 size=N/A time=00:22:47.03 bitrate=N/A speed=7.74x    frame=32869 fps=186 q=-0.0 size=N/A time=00:22:50.91 bitrate=N/A speed=7.74x    frame=32968 fps=186 q=-0.0 size=N/A time=00:22:55.04 bitrate=N/A speed=7.74x    frame=33065 fps=186 q=-0.0 size=N/A time=00:22:59.08 bitrate=N/A speed=7.74x    frame=33160 fps=186 q=-0.0 size=N/A time=00:23:03.04 bitrate=N/A speed=7.74x    frame=33256 fps=186 q=-0.0 size=N/A time=00:23:07.05 bitrate=N/A speed=7.74x    frame=33352 fps=186 q=-0.0 size=N/A time=00:23:11.05 bitrate=N/A speed=7.74x    frame=33446 fps=186 q=-0.0 size=N/A time=00:23:14.97 bitrate=N/A speed=7.74x    frame=33534 fps=186 q=-0.0 size=N/A time=00:23:18.64 bitrate=N/A speed=7.74x    frame=33632 fps=186 q=-0.0 size=N/A time=00:23:22.73 bitrate=N/A speed=7.74x    frame=33725 fps=186 q=-0.0 size=N/A time=00:23:26.61 bitrate=N/A speed=7.74x    frame=33817 fps=186 q=-0.0 size=N/A time=00:23:30.45 bitrate=N/A speed=7.74x    frame=33916 fps=186 q=-0.0 size=N/A time=00:23:34.57 bitrate=N/A speed=7.74x    frame=34006 fps=186 q=-0.0 size=N/A time=00:23:38.33 bitrate=N/A speed=7.74x    frame=34108 fps=186 q=-0.0 size=N/A time=00:23:42.58 bitrate=N/A speed=7.74x    frame=34203 fps=186 q=-0.0 size=N/A time=00:23:46.55 bitrate=N/A speed=7.74x    frame=34299 fps=186 q=-0.0 size=N/A time=00:23:50.55 bitrate=N/A speed=7.74x    frame=34400 fps=186 q=-0.0 size=N/A time=00:23:54.76 bitrate=N/A speed=7.74x    [Parsed_ssim_10 @ 000001c651183200] SSIM Y:0.990374 (20.165674) U:0.994500 (22.596760) V:0.994819 (22.855472) All:0.991803 (20.863292)
[out#0/null @ 000001c645622300] video:14805KiB audio:269476KiB subtitle:0KiB other streams:0KiB global headers:0KiB muxing overhead: unknown
frame=34456 fps=186 q=-0.0 Lsize=N/A time=00:23:57.10 bitrate=N/A speed=7.74x    
